<svg width="3858" height="1520" xmlns="http://www.w3.org/2000/svg" xmlns:xlink="http://www.w3.org/1999/xlink" xml:space="preserve" overflow="hidden"><g transform="matrix(1 0 0 1 0 -3911)"><path d="M0 4662 59.3268 4664.38C178.976 4671.2 304.531 4684.27 433.05 4703.31 919.8 4775.41 1389.42 4984.13 1720.8 5125.39 1686.51 4982.72 1771.07 4830.15 1923.2 4879.99 1988.28 4901.32 2003.54 4996.11 1958.33 5023.09 1967.57 5065.56 2189.03 5115.33 2686.97 4899.57L2724 4883.17 2724 5023.98 2672.55 5043.08C2318.57 5168.85 2081.71 5174.39 1965.54 5141.9 1837.45 5106.07 1829.26 4992.03 1870.08 4979.48 1825.5 4971.32 1812.82 5060.84 1838.92 5112.07 1855.43 5144.5 1888.03 5190.35 1960 5222.26 1986.44 5231.79 2010.68 5239.73 2033.04 5246.16 2209.73 5289.34 2423.64 5311.91 2719.81 5290.86L2724 5290.52 2724 5423.92 2682.46 5426.72C2470.21 5437.26 2277.51 5427.74 2121.11 5396.56 1776.07 5336.73 1457.55 5135.27 1001.63 4981.72 1094.7 5029.94 1143.81 5158.6 1064.29 5286.92 964.467 5448.02 679.848 5526 141.292 5236.95 105.619 5220.12 71.195 5204.56 37.9992 5190.18L0 5174.08 0 5038.66 23.5847 5046.67C74.1527 5064.63 127.111 5085.06 182.448 5108.17 239.753 5132.12 289.002 5154.7 331.496 5175.84 456.939 5228.76 634.384 5293.56 753.119 5294.65 979.36 5296.71 994.872 5130.91 958.491 5089.42 914.599 5039.33 866.469 5078.99 874.452 5089.42 876.504 5081.44 899.866 5068.36 922.857 5085.84 955.686 5110.79 944.597 5183.94 884.762 5189.55 812.724 5196.32 766.601 5149.07 776.728 5078.15 786.012 5013.08 857.505 4949.99 947.332 4963.88 783.593 4911.47 602.339 4865.85 396.101 4835.33 274.995 4817.41 165.133 4805.41 64.7469 4798.45L0 4794.66 0 4662Z" fill="#FFFFFF" fill-rule="evenodd"/><path d="M3416.27 4658.5C3567.22 4662.01 3663.33 4721.82 3713.24 4802.43 3792.76 4930.85 3743.65 5059.59 3650.58 5107.87 3691.82 5093.97 3731.95 5079.67 3771.06 5065.12L3858 5031.51 3858 5174.04 3793.31 5197.96C3571.16 5278.2 3328.82 5349.9 3082.01 5386.48 2990.14 5400.1 2899.78 5410.67 2812.02 5418.07L2724 5424 2724 5290.49 2795.59 5284.65C2873.14 5277.52 2956.06 5267.55 3045.06 5254.37 3251.29 5223.83 3432.55 5178.17 3596.29 5125.72 3506.46 5139.62 3434.97 5076.48 3425.68 5011.36 3415.56 4940.4 3461.7 4893.1 3533.72 4899.88 3593.55 4905.49 3604.64 4978.7 3571.81 5003.67 3548.82 5021.15 3525.46 5008.07 3523.41 5000.08 3515.42 5010.49 3563.56 5050.21 3607.44 5000.08 3643.82 4958.56 3628.31 4792.64 3402.07 4794.69 3283.34 4795.79 3105.92 4860.64 2980.46 4913.6 2937.96 4934.75 2888.74 4957.35 2831.41 4981.32 2803.74 4992.89 2776.67 5003.78 2750.19 5014.03L2724 5023.75 2724 4882.83 2737.68 4876.76C2754.9 4868.97 2772.42 4860.86 2790.26 4852.44 3059.53 4707.81 3265.32 4655 3416.27 4658.5Z" fill="#FFFFFF" fill-rule="evenodd"/><path d="M1174 3918 1174 4051.66 1140.75 4054.07C1052.37 4061.28 956.83 4072.29 853.021 4087.67 646.837 4118.21 465.625 4163.9 301.929 4216.34 391.737 4202.44 463.211 4265.59 472.493 4330.72 482.618 4401.7 436.483 4449.01 364.487 4442.23 304.668 4436.61 293.586 4363.39 326.398 4338.41 349.387 4320.95 372.738 4334.01 374.795 4342 382.776 4331.59 334.658 4291.86 290.778 4342 254.402 4383.53 269.91 4549.49 496.096 4547.43 614.795 4546.33 792.199 4481.47 917.609 4428.53 960.092 4407.34 1009.31 4384.74 1066.62 4360.77 1094.28 4349.2 1121.35 4338.31 1147.82 4328.06L1174 4318.32 1174 4459.3 1160.32 4465.37C1143.11 4473.17 1125.59 4481.27 1107.76 4489.69 569.347 4779 284.803 4700.97 185.008 4539.69 105.507 4411.25 154.629 4282.48 247.676 4234.19 166.213 4261.66 89.1371 4290.66 15.5124 4320.09L0 4326.42 0 4183.28 22.6449 4174.55C266.548 4082.33 538.491 3996.7 816.076 3955.52 907.925 3941.9 998.252 3931.33 1085.99 3923.93L1174 3918Z" fill="#FFFFFF" fill-rule="evenodd"/><path d="M3130.91 3911.52C3281.88 3908.02 3487.69 3960.81 3756.99 4105.4 3780.19 4116.35 3802.87 4126.77 3825.03 4136.67L3858 4151 3858 4289.64 3845.03 4285.04C3803.52 4269.77 3760.45 4252.88 3715.83 4234.24 3658.52 4210.3 3609.27 4187.71 3566.77 4166.53 3441.32 4113.6 3263.87 4048.76 3145.1 4047.69 2918.83 4045.62 2903.32 4211.49 2939.7 4253.02 2983.6 4303.11 3031.74 4263.42 3023.75 4253.02 3021.7 4261.01 2998.34 4274.06 2975.34 4256.58 2942.51 4231.61 2953.6 4158.46 3013.44 4152.82 3085.46 4146.04 3131.62 4193.35 3121.51 4264.27 3112.2 4329.37 3040.7 4392.49 2950.86 4378.6 3114.62 4431.04 3295.9 4476.67 3502.16 4507.21 3616.24 4524.09 3720.34 4535.72 3815.94 4542.83L3858 4545.53 3858 4679 3838.97 4678.24C3719.31 4671.42 3593.73 4658.34 3465.2 4639.3 2978.4 4567.15 2508.73 4358.35 2177.33 4217.01 2211.6 4359.75 2127.03 4512.41 1974.91 4462.52 1909.82 4441.19 1894.56 4346.35 1939.75 4319.36 1930.51 4276.87 1709.03 4227.08 1211.04 4442.95L1174 4459.37 1174 4318.47 1225.46 4299.36C1579.47 4173.53 1816.36 4167.99 1932.54 4200.51 2060.64 4236.34 2068.83 4350.44 2028.02 4362.99 2072.6 4371.16 2085.28 4281.61 2059.18 4230.34 2042.66 4197.89 2010.07 4152.02 1938.11 4120.1 1911.64 4110.56 1887.4 4102.62 1865.06 4096.18 1732.52 4063.8 1579.04 4043 1385.63 4043.51 1329.21 4043.66 1269.4 4045.62 1205.72 4049.63L1174 4051.93 1174 3918.34 1215.53 3915.54C1427.8 3905 1620.51 3914.52 1776.93 3945.71 2122.01 4005.57 2440.58 4207.13 2896.59 4360.75 2803.49 4312.51 2754.36 4183.79 2833.89 4055.4 2883.81 3974.82 2979.94 3915.02 3130.91 3911.52Z" fill="#FFFFFF" fill-rule="evenodd"/></g></svg>
