<?xml version="1.0" encoding="UTF-8" standalone="no"?>
<!-- Created with Inkscape (http://www.inkscape.org/) -->

<svg
  xmlns:dc="http://purl.org/dc/elements/1.1/"
  xmlns:cc="http://creativecommons.org/ns#"
  xmlns:rdf="http://www.w3.org/1999/02/22-rdf-syntax-ns#"
  xmlns:svg="http://www.w3.org/2000/svg"
  xmlns="http://www.w3.org/2000/svg"
  xmlns:sodipodi="http://sodipodi.sourceforge.net/DTD/sodipodi-0.dtd"
  xmlns:inkscape="http://www.inkscape.org/namespaces/inkscape"
  viewBox="0 0 115.90248 33.166737"
  version="1.1"
  id="svg5876"
  inkscape:version="0.92.3 (2405546, 2018-03-11)"
  sodipodi:docname="kowhaiwhai2.svg">
  <defs
    id="defs5870"/>
  <sodipodi:namedview
    id="base"
    pagecolor="#ffffff"
    bordercolor="#666666"
    borderopacity="1.0"
    inkscape:pageopacity="0.0"
    inkscape:pageshadow="2"
    inkscape:zoom="1.979899"
    inkscape:cx="213.57115"
    inkscape:cy="-60.450857"
    inkscape:document-units="mm"
    inkscape:current-layer="layer1"
    showgrid="false"
    fit-margin-top="0"
    fit-margin-left="0"
    fit-margin-right="0"
    fit-margin-bottom="0"
    inkscape:window-width="3440"
    inkscape:window-height="1377"
    inkscape:window-x="1912"
    inkscape:window-y="-8"
    inkscape:window-maximized="1"/>
  <metadata
    id="metadata5873">
    <rdf:RDF>
      <cc:Work
        rdf:about="">
        <dc:format>image/svg+xml</dc:format>
        <dc:type
          rdf:resource="http://purl.org/dc/dcmitype/StillImage"/>
        <dc:title></dc:title>
      </cc:Work>
    </rdf:RDF>
  </metadata>
  <g
    inkscape:label="Layer 1"
    inkscape:groupmode="layer"
    id="layer1"
    transform="translate(-11.672472,-11.142586)">
    <path
      inkscape:connector-curvature="0"
      id="path5012"
      style="fill:#ffffff;fill-opacity:1;fill-rule:nonzero;stroke:none;stroke-width:0.35277775"
      d="m 109.32637,37.261287 c 2.03129,-1.053042 3.10338,-3.861153 1.36772,-6.662209 -2.17876,-3.516841 -8.39082,-5.218994 -20.145731,1.090789 -12.457641,5.876219 -17.942983,4.706056 -18.158177,3.71722 0.987071,-0.588787 0.653696,-2.658181 -0.766587,-3.123848 -3.320696,-1.087613 -5.166077,2.242609 -4.417836,5.35693 C 59.972757,34.556892 49.722799,30.000415 39.098543,28.426673 31.618244,27.318245 24.597967,27.136212 19.255147,28.000165 l 0.0032,-0.0042 c -2.573871,0.306883 -5.056721,0.99868 -7.585785,1.910963 v 9.648121 c 0.614891,0.188735 1.329266,0.190145 2.132894,-0.07302 1.420283,-0.465667 1.754011,-2.535062 0.766939,-3.123849 0.215194,-0.988836 5.700536,-2.159 18.158177,3.717219 11.754907,6.309784 17.966972,4.607632 20.145729,1.09079 1.735666,-2.801056 0.663926,-5.60952 -1.367722,-6.662209 9.951509,3.351742 16.903348,7.749824 24.434448,9.055807 5.462059,1.088671 12.951884,0.967317 20.973344,-0.221192 10.773829,-1.595614 21.158549,-6.256515 28.406369,-9.340851 -0.63218,2.397831 0.29175,4.956176 2.25213,5.55731 v -9.648121 c -5.41655,1.954389 -11.04653,4.928659 -18.24848,7.354359 M 46.084621,41.33517 c -2.591504,-0.024 -6.464652,-1.438629 -9.20256,-2.593623 -0.927453,-0.461433 -2.002366,-0.954616 -3.253316,-1.47708 -9.662583,-4.036484 -16.001294,-4.310592 -18.898658,-3.499909 -2.795764,0.782109 -2.974622,3.271661 -2.083859,3.545417 -0.972961,0.178505 -1.249538,-1.775883 -0.680155,-2.894189 0.447322,-0.878064 1.4097,-2.215092 3.91795,-2.850797 5.18795,-1.315508 11.834988,-1.821392 22.40809,-0.25647 4.501446,0.666045 8.457848,1.661937 12.031488,2.805995 -1.96074,-0.303036 -3.521075,1.074208 -3.723572,2.494491 -0.221191,1.54799 0.785638,2.579511 2.357967,2.431699 1.305983,-0.122415 1.54799,-1.719087 0.831498,-2.263776 -0.502002,-0.381353 -1.011767,-0.09631 -1.056568,0.07796 -0.174274,-0.227542 0.8763,-1.093259 1.834091,0 0.794454,0.905932 0.455787,4.52508 -4.482396,4.480278 m 62.300199,-6.42479 c -0.95779,1.093259 -2.00836,0.226837 -1.83409,0 0.0448,0.174273 0.55457,0.459317 1.05657,0.07796 0.71649,-0.544689 0.47449,-2.141361 -0.8315,-2.263775 -1.57198,-0.147813 -2.57915,0.883709 -2.35796,2.431698 0.20249,1.420283 1.76283,2.797528 3.72357,2.494491 -3.574,1.144058 -7.53005,2.13995 -12.031489,2.805996 -10.360731,1.533525 -16.94674,1.076325 -22.089181,-0.180271 -0.487892,-0.140404 -1.017059,-0.313619 -1.594202,-0.521759 -1.570919,-0.696383 -2.282119,-1.697212 -2.642659,-2.405238 -0.569735,-1.118306 -0.292803,-3.072694 0.680157,-2.894189 -0.890765,0.273756 -0.712259,2.763308 2.083504,3.545417 2.897716,0.810683 9.236429,0.536575 18.899012,-3.499556 1.251302,-0.522816 2.325863,-1.016 3.253317,-1.477433 2.73826,-1.154994 6.611051,-2.569633 9.202561,-2.593622 4.93783,-0.0448 5.27649,3.574344 4.48239,4.480277"/>
    <path
      inkscape:connector-curvature="0"
      id="path5016"
      style="fill:#ffffff;fill-opacity:1;fill-rule:nonzero;stroke:none;stroke-width:0.35277775"
      d="m 33.685805,24.852823 c 2.178755,3.517195 8.391171,5.218994 20.145727,-1.090436 12.457642,-5.876572 17.942984,-4.706408 18.158177,-3.717572 -0.986367,0.588786 -0.653343,2.65818 0.767292,3.123494 3.319991,1.088673 5.165373,-2.242255 4.417835,-5.356578 7.232298,3.083984 17.482256,7.639403 28.106514,9.21385 7.48029,1.107723 14.50093,1.290109 19.84339,0.426156 l -0.003,0.0042 c 0.8262,-0.09878 1.64147,-0.245533 2.45321,-0.417689 v -2.93123 c -5.05389,1.146528 -11.52807,1.510242 -21.48698,0.03634 -4.50145,-0.666044 -8.457849,-1.661936 -12.031489,-2.805994 1.96074,0.303036 3.521075,-1.074209 3.724275,-2.494492 0.220488,-1.547636 -0.786694,-2.579511 -2.35867,-2.431697 -1.305984,0.122766 -1.54799,1.719086 -0.831499,2.263775 0.502002,0.381352 1.011767,0.09666 1.056569,-0.07761 0.174273,0.226836 -0.8763,1.092905 -1.834444,0 -0.794101,-0.906286 -0.455435,-4.525433 4.482749,-4.479925 2.591859,0.02328 6.464649,1.437922 9.202559,2.592917 0.92745,0.462138 2.00237,0.954969 3.25332,1.47708 7.78968,3.254375 13.41543,4.061178 16.82361,3.827639 v -2.127574 c -2.67175,0.151341 -7.82231,-0.688975 -15.92561,-4.51097 -11.754204,-6.3097826 -17.966973,-4.60763 -20.145729,-1.090788 -1.735667,2.801055 -0.663927,5.609519 1.368073,6.662208 -9.95186,-3.351742 -16.904406,-7.749822 -24.435506,-9.055805 -5.462056,-1.088673 -12.951529,-0.967317 -20.972637,0.221191 -10.773834,1.59632 -21.158553,6.256867 -28.406372,9.34085 0.830439,-3.149953 -1.019175,-6.587067 -4.384675,-5.484283 -1.420636,0.465666 -1.754364,2.534708 -0.767292,3.123847 -0.07549,0.345722 -0.796925,0.712611 -2.23273,0.79375 v 2.127603 c 0.81915,-0.05609 1.513769,-0.170745 2.075392,-0.327731 2.795411,-0.782461 2.974269,-3.271308 2.083505,-3.545769 0.972961,-0.177448 1.249892,1.776236 0.680156,2.894541 -0.447323,0.878064 -1.409348,2.215092 -3.91795,2.850798 -0.301625,0.07655 -0.609247,0.149577 -0.921103,0.220133 v 2.93123 c 7.13493,-1.512005 13.895916,-5.652911 23.381405,-8.847666 -2.031295,1.053041 -3.103739,3.861153 -1.368072,6.662208 m 2.309283,-4.311297 c 0.957792,-1.093259 2.008364,-0.226836 1.834092,0 -0.0448,-0.174272 -0.554567,-0.458964 -1.05657,-0.07796 -0.716491,0.544689 -0.474486,2.141361 0.831497,2.263775 1.571977,0.147814 2.579159,-0.883708 2.357967,-2.431697 -0.202494,-1.420636 -1.762832,-2.797528 -3.723569,-2.494492 3.573992,-1.143705 7.530042,-2.13995 12.031486,-2.805994 10.360731,-1.533173 16.947443,-1.075972 22.089533,0.180269 0.487537,0.140406 1.016704,0.31362 1.594202,0.521758 1.570215,0.696384 2.281766,1.697214 2.642306,2.405239 0.569735,1.118659 0.292804,3.072342 -0.680156,2.894189 0.890765,-0.273755 0.712258,-2.763308 -2.083507,-3.545064 -2.897716,-0.811036 -9.236427,-0.536927 -18.89901,3.499203 -1.251302,0.522817 -2.325862,1.015647 -3.253317,1.477786 -2.737908,1.154642 -6.611053,2.569281 -9.20256,2.592917 -4.938183,0.0448 -5.276497,-3.574344 -4.482394,-4.479925"/>
  </g>
</svg>
